<svg viewBox="0 0 64 64" xmlns="http://www.w3.org/2000/svg"><g id="Backpack_girl" stroke="#0f283a" stroke-linecap="round" stroke-linejoin="round" stroke-width="2" data-name="Backpack girl"><path d="m49 14.35v2.12a14.52 14.52 0 0 1 -14.53 14.53h-.47v-2a2 2 0 0 0 -2-2 2 2 0 0 0 -2 2v2h-.47a14.43 14.43 0 0 1 -7.53-2.11 14.49 14.49 0 0 1 -7-12.42v-2.12a3.35 3.35 0 0 1 3.35-3.35h27.3a3.35 3.35 0 0 1 3.35 3.35z" fill="#e32728"/><path d="m52 32v22a3 3 0 0 1 -3 3h-34a3 3 0 0 1 -3-3v-22a19.88 19.88 0 0 1 3.59-11.42 14.6 14.6 0 0 0 6.41 8.31 14.43 14.43 0 0 0 7.53 2.11h.47v1a2 2 0 0 0 4 0v-1h.47a14.55 14.55 0 0 0 13.94-10.42 19.88 19.88 0 0 1 3.59 11.42z" fill="#ee4d4e"/><path d="m7 38h5a0 0 0 0 1 0 0v16a0 0 0 0 1 0 0 5 5 0 0 1 -5-5v-11a0 0 0 0 1 0 0z" fill="#fcaa35"/><rect fill="#f2c05c" height="16" rx="2" width="30" x="17" y="37"/><path d="m21 43h22" fill="#e32728"/><path d="m24 46v-3" fill="#e32728"/><path d="m57 38a0 0 0 0 1 0 0v16a0 0 0 0 1 0 0h-5a0 0 0 0 1 0 0v-11a5 5 0 0 1 5-5z" fill="#fcaa35" transform="matrix(-1 0 0 -1 109 92)"/><path d="m31 7h2a4 4 0 0 1 4 4 0 0 0 0 1 0 0h-10a0 0 0 0 1 0 0 4 4 0 0 1 4-4z" fill="none"/><path d="m34 29v2.88a2.07 2.07 0 0 1 -1.66 2.12 2 2 0 0 1 -2.34-2v-3a2 2 0 0 1 2-2 2 2 0 0 1 2 2z" fill="#f2c05c"/></g></svg>