<svg height="512" viewBox="0 0 512 512" width="512" xmlns="http://www.w3.org/2000/svg"><g id="a"><g><g fill="#e03757"><path d="m439.81 126.54c-3.21-4.36-8.75-6.34-13.99-4.99-13.4 3.45-39.16 13.07-58.16 38.46-13.75 18.39-42.84 5.5-38.51-17.05 1.96-10.23 5.81-21.61 12.3-34.11 30.09-57.94-16-102.22-19.29-105.27-.13-.12-.26-.22-.41-.33-1.54-1.05-10.83-6.84-19.5.16-1.91 1.54-47.87 37.68-94.41 93.33-50.29 60.14-95.73 136.57-95.73 215.26 0 110.28 89.72 199.99 199.99 199.99s199.99-89.72 199.99-199.99c0-66.31-32.28-130.98-72.31-185.46z"/><rect height="49.4" rx="24.7" width="138.61" x="26.42" y="96.35"/><rect height="49.4" rx="24.7" width="112.01" x=".12" y="195.14"/><rect height="49.4" rx="24.7" width="58.24" x="41.42" y="293.93"/><rect height="49.4" rx="24.7" width="116.86" x="9.68" y="392.39"/></g><path d="m453 145.34c-4.28-6.39-8.68-12.66-13.19-18.8-3.21-4.36-8.75-6.34-13.99-4.99-13.4 3.45-39.16 13.07-58.16 38.46-13.75 18.39-42.84 5.5-38.51-17.05 1.96-10.23 5.81-21.61 12.3-34.11 30.09-57.94-16-102.22-19.29-105.27-.13-.12-.26-.22-.41-.33-1.54-1.05-10.83-6.84-19.5.16-1.91 1.54-47.87 37.68-94.41 93.33-50.29 60.14-95.73 136.57-95.73 215.26 0 29.92 6.62 58.32 18.45 83.84 15.17 2.58 30.76 3.93 46.66 3.93 145.31 0 264.44-112.03 275.76-254.43z" fill="#f04760"/><path d="m312.38 442.12c-62.86 0-113.82-50.96-113.82-113.82s50.96-113.82 113.82-113.82 113.82 50.96 113.82 113.82-50.96 113.82-113.82 113.82z" fill="#f8c358"/><path d="m357.49 317.86h-33.82v-59.23c0-7.48-6.06-13.55-13.55-13.55s-13.55 6.06-13.55 13.55v72.78c0 7.48 6.06 13.55 13.55 13.55h47.37c7.48 0 13.55-6.06 13.55-13.55s-6.06-13.55-13.55-13.55z" fill="#fff"/></g></g></svg>