<svg id="Capa_1" enable-background="new 0 0 512 512" height="512" viewBox="0 0 512 512" width="512" xmlns="http://www.w3.org/2000/svg"><g><g><path d="m50.7 301-30.547 152.736c-4.89 24.451 13.811 47.264 38.747 47.264 18.836 0 35.053-13.295 38.747-31.765l33.647-168.235-40.297-20z" fill="#e20059"/></g><g><path d="m45 131c-24.813 0-45 20.187-45 45v80c0 24.813 20.187 45 45 45h117v-170z" fill="#ff7d47"/><g><path d="m0 216v40c0 24.813 20.187 45 45 45h117v-85z" fill="#ff405c"/></g><path d="m131.294 131v170l194.706 102.477v-374.954z" fill="#f9f9f9"/><g><path d="m131.294 216v85l194.706 102.477v-187.477z" fill="#e2dff4"/></g><g><path d="m333.32 318.481v-204.962l42.188 28.125c15.337 10.224 24.492 27.332 24.492 45.763v57.186c0 18.432-9.155 35.539-24.491 45.763z" fill="#613393"/></g><g><path d="m333.32 216v102.481l42.188-28.125c15.337-10.224 24.492-27.332 24.492-45.763v-28.593z" fill="#2b0552"/></g><g><path d="m497 231h-50c-8.284 0-15-6.716-15-15 0-8.284 6.716-15 15-15h50c8.284 0 15 6.716 15 15 0 8.284-6.716 15-15 15z" fill="#ff7d47"/></g><g><path d="m447 231h50c8.284 0 15-6.716 15-15h-80c0 8.284 6.716 15 15 15z" fill="#ff405c"/></g><g><path d="m424.01 143.5c-4.142-7.175-1.684-16.348 5.49-20.491l43.301-25c7.174-4.142 16.348-1.684 20.49 5.49 4.142 7.174 1.684 16.348-5.49 20.49l-43.301 25c-7.174 4.143-16.348 1.685-20.49-5.489z" fill="#ff7d47"/></g><g><path d="m472.802 333.99-43.301-25c-7.174-4.142-9.633-13.316-5.49-20.49 4.142-7.174 13.316-9.633 20.49-5.49l43.301 25c7.174 4.142 9.633 13.316 5.49 20.49-4.142 7.174-13.316 9.632-20.49 5.49z" fill="#ff405c"/></g></g><g><path d="m325 421c-8.284 0-15-6.716-15-15v-380c0-8.284 6.716-15 15-15s15 6.716 15 15v380c0 8.284-6.716 15-15 15z" fill="#ff7d47"/></g><g><path d="m310 216v190c0 8.284 6.716 15 15 15s15-6.716 15-15v-190z" fill="#ff405c"/></g></g></svg>