<?xml version="1.0" encoding="iso-8859-1"?>
<!-- Generator: Adobe Illustrator 19.0.0, SVG Export Plug-In . SVG Version: 6.00 Build 0)  -->
<svg version="1.1" id="Capa_1" xmlns="http://www.w3.org/2000/svg" xmlns:xlink="http://www.w3.org/1999/xlink" x="0px" y="0px"
	 viewBox="0 0 512 512" style="enable-background:new 0 0 512 512;" xml:space="preserve">
<path style="fill:#EFEDEE;" d="M222.875,289.125l-122.031-78.009L0,311.959l49.849,49.849c27.71-27.71,72.632-27.71,100.342,0
	c27.71,27.71,27.71,72.632,0,100.342L200.041,512l100.843-100.843L222.875,289.125z"/>
<polygon style="fill:#D9D7D8;" points="222.875,289.125 209.543,280.604 279.03,389.303 178.186,490.147 200.041,512 
	300.884,411.157 "/>
<path style="fill:#FD6F71;" d="M512,200.041L300.884,411.157L100.843,211.116L311.959,0l49.849,49.849
	c-27.71,27.71-27.71,72.632,0,100.342c27.71,27.71,72.632,27.71,100.342,0L512,200.041z"/>
<rect x="246.231" y="279.222" transform="matrix(-0.7071 0.7071 -0.7071 -0.7071 883.5497 223.3718)" style="fill:#E36465;" width="298.564" height="30.905"/>
<g>
	<path style="fill:#596674;" d="M111.924,282.368l-16.081-16.081c-3.017-3.017-3.017-7.91,0-10.927
		c3.017-3.017,7.909-3.017,10.927,0l16.081,16.081c3.017,3.017,3.017,7.91,0,10.927
		C119.834,285.385,114.941,285.386,111.924,282.368z"/>
	<path style="fill:#596674;" d="M145.371,315.814l-16.08-16.08c-3.017-3.017-3.017-7.91,0-10.927c3.017-3.017,7.909-3.017,10.927,0
		l16.08,16.08c3.017,3.017,3.017,7.91,0,10.927C153.28,318.832,148.388,318.833,145.371,315.814z"/>
	<path style="fill:#596674;" d="M178.818,349.262l-16.081-16.081c-3.017-3.017-3.017-7.91,0-10.927
		c3.017-3.017,7.909-3.017,10.927,0l16.081,16.081c3.017,3.017,3.017,7.91,0,10.927C186.728,352.28,181.836,352.28,178.818,349.262z
		"/>
	<path style="fill:#596674;" d="M212.266,382.709l-16.081-16.081c-3.017-3.017-3.017-7.91,0-10.927
		c3.017-3.017,7.909-3.017,10.927,0l16.081,16.08c3.017,3.017,3.017,7.91,0,10.927C220.175,385.727,215.283,385.728,212.266,382.709
		z"/>
	<path style="fill:#596674;" d="M245.713,416.157l-16.081-16.08c-3.017-3.017-3.017-7.91,0-10.927c3.017-3.017,7.909-3.017,10.927,0
		l16.081,16.08c3.017,3.017,3.017,7.91,0,10.927C253.622,419.174,248.731,419.174,245.713,416.157z"/>
</g>
<path style="fill:#EFEDEE;" d="M353.027,209.465c-0.718,0.718-1.676,1.436-2.754,1.796l-128.45,44.173
	c-2.634,0.958-6.105-0.12-8.38-2.394c-4.07-4.07-3.351-10.056-0.359-13.048c0.718-0.718,1.796-1.317,2.872-1.676l128.331-44.293
	c2.993-1.078,5.866-0.121,8.021,2.035C355.66,199.409,356.858,205.634,353.027,209.465z M248.28,168.165l16.999-16.999
	c11.851-11.851,23.941-8.38,34.118,1.796c10.056,10.057,13.647,22.266,1.796,34.119l-16.998,16.998
	c-11.851,11.851-24.062,8.261-34.118-1.796C239.899,192.106,236.428,180.016,248.28,168.165z M264.68,261.659l16.999-16.999
	c11.851-11.851,23.941-8.381,34.118,1.796c10.056,10.056,13.648,22.266,1.796,34.118l-16.999,16.999
	c-11.851,11.851-24.062,8.26-34.118-1.796C256.3,285.6,252.828,273.51,264.68,261.659z M289.22,175.107
	c3.951-3.951,3.472-8.021-0.239-11.732c-3.712-3.712-7.661-4.07-11.612-0.119l-16.999,16.999c-3.95,3.95-3.591,7.9,0.12,11.612
	c3.712,3.711,7.782,4.19,11.732,0.239L289.22,175.107z M305.621,268.602c3.951-3.95,3.472-8.021-0.24-11.732
	c-3.711-3.712-7.661-4.07-11.612-0.119l-16.999,16.999c-3.951,3.951-3.591,7.9,0.12,11.611c3.712,3.712,7.781,4.19,11.732,0.24
	L305.621,268.602z"/>
<g>
</g>
<g>
</g>
<g>
</g>
<g>
</g>
<g>
</g>
<g>
</g>
<g>
</g>
<g>
</g>
<g>
</g>
<g>
</g>
<g>
</g>
<g>
</g>
<g>
</g>
<g>
</g>
<g>
</g>
</svg>
